<mxfile host="app.diagrams.net" modified="2023-11-17T01:07:57.731Z" agent="Mozilla/5.0 (Windows NT 10.0; Win64; x64; rv:109.0) Gecko/20100101 Firefox/119.0" version="22.1.2" etag="6ZcTPfjUDV1k5apELN8K" type="github">
  <diagram name="Page-1" id="MwpRq4-hX-NwPDFgf5o7">
    <mxGraphModel>
      <root>
        <mxCell id="0" />
        <mxCell id="1" parent="0" />
      </root>
    </mxGraphModel>
  </diagram>
</mxfile>
